<?xml version="1.0" standalone="no"?>
<!DOCTYPE svg PUBLIC "-//W3C//DTD SVG 20010904//EN"
 "http://www.w3.org/TR/2001/REC-SVG-20010904/DTD/svg10.dtd">
<svg version="1.0" xmlns="http://www.w3.org/2000/svg"
 width="1280.000000pt" height="720.000000pt" viewBox="0 0 1280.000000 720.000000"
 preserveAspectRatio="xMidYMid meet">

<g transform="translate(0.000000,720.000000) scale(0.100000,-0.100000)"
fill="#000000" stroke="none">
<path d="M7950 4449 c-26 -14 -54 -19 -113 -19 -49 0 -89 -5 -106 -15 -25 -12
-31 -12 -47 0 -24 18 -359 22 -370 4 -4 -8 -9 -8 -17 0 -7 7 -84 11 -222 11
-189 0 -214 -2 -227 -17 -9 -10 -44 -69 -78 -130 -34 -62 -65 -111 -69 -109
-4 3 -29 56 -56 118 -27 62 -53 119 -58 126 -8 9 -60 12 -226 10 -214 -3 -216
-3 -219 -25 -2 -12 31 -126 73 -254 42 -127 74 -233 72 -235 -2 -2 -43 105
-92 239 -49 133 -95 250 -104 261 -15 17 -32 18 -381 11 -250 -5 -367 -11
-372 -18 -4 -7 -40 -102 -79 -212 -40 -110 -73 -201 -74 -203 -1 -1 -317 97
-701 218 l-699 221 -175 -5 c-210 -6 -173 -6 -410 0 -191 5 -195 5 -212 -16
-13 -16 -18 -40 -18 -86 0 -51 -3 -64 -15 -64 -9 0 -218 38 -464 85 l-449 85
-170 0 c-151 0 -171 -2 -185 -18 -10 -10 -17 -31 -17 -45 0 -21 -5 -27 -22
-27 -13 0 -138 19 -278 42 -229 37 -277 42 -471 45 -197 4 -217 3 -236 -14
-19 -17 -76 -173 -264 -728 -43 -126 -109 -322 -148 -434 l-71 -204 0 -132 c0
-103 3 -135 14 -144 11 -9 64 -11 188 -9 141 4 231 13 487 51 173 26 317 47
321 47 3 0 11 -20 18 -45 9 -33 18 -46 34 -50 13 -3 210 -4 438 -1 228 3 424
5 435 4 11 0 184 -2 385 -3 296 -3 375 0 417 12 46 12 55 12 75 -1 18 -12 58
-15 188 -14 l165 0 304 84 c167 47 308 81 312 77 4 -4 17 -37 29 -73 13 -36
30 -71 38 -77 19 -16 126 -17 154 -2 14 8 23 8 31 0 6 -6 38 -11 71 -11 52 0
85 10 254 81 107 44 196 78 198 76 2 -1 15 -34 30 -72 14 -39 31 -73 37 -77
18 -12 126 -9 149 3 14 8 23 8 31 0 6 -6 40 -11 77 -11 l65 0 278 186 c154
102 281 183 283 181 2 -2 4 -81 5 -175 0 -153 2 -173 17 -181 27 -14 357 -12
377 3 9 6 58 124 108 261 l92 250 5 308 5 308 44 -103 c24 -57 54 -122 66
-145 l23 -43 -63 -144 c-60 -137 -225 -632 -225 -674 0 -11 7 -23 16 -26 9 -3
107 -6 219 -6 150 0 205 3 212 13 5 6 34 67 63 135 29 67 54 121 55 120 1 -2
30 -55 65 -118 34 -63 70 -123 78 -132 13 -16 37 -18 223 -18 163 0 211 3 221
14 11 11 16 11 34 -1 17 -11 47 -13 130 -9 132 6 117 6 187 1 83 -5 87 3 87
188 0 137 1 149 18 144 9 -2 211 -78 447 -168 l430 -163 185 -2 c122 -2 189 1
197 8 10 8 24 8 51 -1 27 -9 134 -10 402 -6 424 6 383 6 621 0 142 -4 189 -2
196 8 6 6 16 33 23 60 9 32 18 47 29 47 9 0 152 -26 316 -57 l300 -57 446 -3
c415 -3 447 -2 461 14 8 10 81 171 162 358 81 187 159 357 172 377 13 21 24
45 24 54 0 10 77 193 171 407 204 466 190 432 176 446 -20 20 -385 14 -547
-10 l-142 -20 -15 20 c-13 20 -23 21 -213 21 -189 0 -214 -2 -476 -45 -151
-25 -281 -45 -288 -45 -7 0 -18 18 -25 40 -15 50 -23 52 -266 48 l-190 -3
-677 -139 c-373 -77 -681 -137 -684 -133 -3 3 -6 56 -5 118 1 167 11 159 -206
159 l-176 0 -122 -45 -122 -45 -64 30 c-66 30 -185 60 -243 60 -25 0 -35 5
-39 20 -7 26 -59 26 -107 -1z m65 -9 c-3 -5 -11 -10 -16 -10 -6 0 -7 5 -4 10
3 6 11 10 16 10 6 0 7 -4 4 -10z m-4657 -112 c2 -43 0 -78 -4 -78 -4 0 -19 10
-32 23 l-25 22 18 -32 c11 -18 24 -29 32 -26 11 4 13 -55 13 -357 -1 -199 2
-365 5 -368 9 -9 5 -52 -5 -52 -5 0 -10 13 -10 30 0 44 -32 58 -58 25 -12 -15
-30 -25 -46 -25 -14 0 -26 -4 -26 -10 0 -5 8 -10 18 -10 10 0 27 -7 39 -15 21
-15 22 -14 20 12 -2 22 2 28 18 28 15 0 20 -6 19 -25 -1 -14 5 -29 12 -33 21
-12 18 -92 -3 -113 -17 -17 -17 -18 0 -11 16 6 17 -4 17 -121 0 -86 -4 -132
-12 -140 -9 -9 -9 -12 0 -12 8 0 12 -22 12 -71 0 -74 -11 -109 -35 -109 -8 0
-15 -7 -15 -15 0 -8 7 -15 15 -15 8 0 15 5 15 10 0 6 5 10 11 10 6 0 9 -12 7
-27 -3 -27 -6 -28 -60 -30 -32 -1 -58 2 -58 7 0 14 -34 12 -48 -2 -9 -9 -18
-8 -38 3 -21 11 -28 11 -31 2 -6 -17 -55 -17 -71 -1 -10 10 -15 10 -22 -2 -5
-8 -12 -11 -16 -7 -12 12 -15 116 -4 137 7 12 7 21 0 25 -16 10 -12 53 6 63
10 6 14 14 9 22 -6 9 -9 9 -16 -1 -5 -8 -9 31 -9 97 0 61 3 113 6 117 3 3 16
2 28 -3 26 -10 78 -2 70 11 -3 5 -16 9 -30 9 -17 0 -24 5 -24 20 0 24 -8 25
-32 3 -17 -15 -18 -14 -18 15 0 22 5 32 15 32 8 0 15 5 15 10 0 6 -6 10 -14
10 -12 0 -15 77 -16 518 0 285 3 521 7 525 4 4 84 6 177 5 l171 -3 3 -77z
m2710 69 c14 -17 16 -937 2 -937 -6 0 -10 13 -10 30 0 44 -32 58 -58 25 -12
-15 -30 -25 -46 -25 -14 0 -26 -4 -26 -10 0 -5 8 -10 18 -10 10 0 27 -7 39
-15 21 -15 22 -14 20 12 -2 22 2 28 18 28 15 0 20 -6 19 -24 0 -13 7 -32 18
-43 22 -22 23 -61 2 -94 -9 -13 -14 -27 -10 -31 3 -3 6 -1 6 5 0 7 5 12 10 12
14 0 13 -226 -1 -253 -9 -16 -9 -22 0 -25 19 -6 14 -138 -6 -162 -10 -11 -23
-20 -30 -20 -7 0 -13 -7 -13 -15 0 -18 26 -20 33 -2 4 9 7 9 18 -1 10 -9 11
-17 3 -30 -13 -21 -114 -28 -126 -9 -6 9 -12 9 -28 0 -26 -17 -45 -16 -61 3
-11 14 -13 14 -21 0 -10 -18 -63 -22 -73 -6 -5 8 -11 7 -21 -1 -8 -6 -17 -9
-21 -5 -13 12 -14 118 -2 133 9 10 9 17 1 25 -17 17 -15 56 4 66 10 6 14 14 9
22 -6 9 -9 9 -16 -1 -5 -8 -9 31 -9 97 0 61 3 113 6 117 3 3 16 2 28 -3 26
-10 78 -2 70 11 -3 5 -16 9 -30 9 -17 0 -24 5 -24 20 0 23 -18 27 -26 5 -10
-25 -24 -17 -24 15 0 20 5 30 15 30 8 0 15 5 15 10 0 6 -6 10 -14 10 -12 0
-15 77 -16 518 0 285 2 521 6 525 4 4 83 7 174 7 124 0 170 -3 178 -13z m555
-125 l59 -134 -53 -116 c-30 -65 -57 -118 -61 -120 -5 -2 -8 -10 -8 -17 0 -8
-19 -55 -42 -105 -32 -70 -44 -88 -50 -75 -12 21 -308 695 -308 701 0 2 91 3
202 2 l202 -3 59 -133z m647 131 c0 -24 -381 -868 -391 -868 -7 0 -14 -6 -17
-14 -3 -9 0 -11 8 -6 18 11 24 25 -152 -377 l-152 -348 -203 0 -203 0 9 23
c12 30 692 1580 698 1590 2 4 94 7 204 7 109 0 199 -3 199 -7z m370 -3 c0 -5
9 -10 20 -10 11 0 20 -7 20 -15 0 -8 5 -15 10 -15 16 0 14 -767 -2 -773 -10
-4 -10 -7 0 -18 17 -18 16 -60 -2 -53 -9 3 -15 -5 -20 -26 -4 -20 -13 -34 -26
-37 -21 -6 -25 -20 -11 -42 10 -16 31 -6 31 14 0 14 24 27 34 18 10 -10 7
-627 -3 -642 -8 -12 -12 -12 -24 -2 -10 8 -17 9 -22 1 -9 -14 -42 -13 -47 2
-4 10 -13 10 -44 0 -21 -6 -79 -10 -129 -9 -104 2 -109 8 -76 78 24 49 24 49
11 49 -5 0 -10 -6 -10 -14 0 -8 -4 -18 -10 -21 -7 -4 -10 93 -10 284 l0 290
27 3 c25 3 27 7 28 50 0 36 -2 44 -12 37 -6 -6 -13 -22 -15 -35 -2 -14 -7 -26
-13 -27 -6 -1 -11 59 -13 161 -2 149 -1 162 15 162 17 1 17 1 0 14 -16 12 -17
33 -15 227 3 190 5 214 19 213 11 -1 15 5 12 17 -3 11 -12 19 -19 19 -10 0
-14 14 -14 48 0 27 3 52 7 55 11 11 303 8 303 -3z m585 -14 c146 -41 231 -105
287 -217 49 -99 68 -175 68 -281 0 -135 -34 -256 -90 -315 -11 -12 -20 -29
-20 -37 0 -8 -13 -20 -30 -28 -16 -7 -30 -20 -30 -28 0 -8 -15 -25 -33 -37
-91 -62 -217 -86 -447 -87 l-175 -1 0 145 0 145 145 0 c106 0 149 4 160 13 8
7 30 23 49 35 19 12 48 39 65 60 28 35 31 47 34 115 3 68 0 83 -25 132 -31 61
-85 100 -140 100 -17 0 -34 4 -38 9 -3 6 -37 8 -77 5 -50 -4 -73 -2 -79 7 -6
10 -11 10 -23 0 -8 -7 -27 -11 -43 -9 l-28 3 -3 134 c-1 74 0 141 3 149 8 21
386 11 470 -12z m3602 12 c5 -7 34 -68 63 -135 l53 -122 -23 -53 c-12 -29 -39
-89 -60 -133 -21 -44 -54 -118 -75 -165 -21 -47 -41 -89 -45 -93 -4 -4 -23 30
-42 75 -20 46 -88 202 -152 347 -64 145 -116 270 -116 277 0 19 383 20 397 2z
m703 5 c0 -5 -84 -201 -187 -437 -136 -310 -193 -431 -206 -434 -14 -4 -15 -7
-6 -13 10 -6 10 -14 2 -31 -5 -13 -77 -175 -158 -360 l-148 -338 -198 0 c-141
0 -199 3 -199 11 0 19 693 1593 704 1601 14 10 396 10 396 1z m-11432 -30
c153 -429 552 -1565 552 -1573 0 -6 -69 -10 -205 -10 l-204 0 -11 43 c-16 62
-69 238 -82 270 l-10 27 -219 0 c-120 0 -220 3 -222 8 -3 4 13 71 36 150 l41
142 131 0 c73 0 134 2 137 5 2 3 -19 83 -47 177 -29 95 -65 226 -80 290 -16
65 -31 116 -32 114 -2 -2 -22 -73 -44 -157 -75 -291 -253 -885 -270 -904 -5
-5 -9 -21 -9 -35 0 -15 -7 -49 -15 -76 l-14 -50 -161 -1 -160 -2 0 110 c0 97
2 109 18 110 16 1 16 2 -1 6 -9 2 -17 13 -17 23 0 25 50 180 59 180 3 0 7 14
8 31 1 17 9 44 17 60 8 16 22 55 31 85 14 47 19 55 36 51 22 -6 23 -3 8 21 -9
14 1 54 46 192 32 96 60 179 62 183 3 4 39 106 80 225 41 119 84 243 95 275
l20 57 208 0 208 0 10 -27z m962 -48 c0 -41 -4 -75 -8 -75 -5 0 -17 9 -27 20
-24 27 -31 18 -10 -14 10 -14 22 -23 31 -19 12 4 14 -48 14 -357 l0 -362 -29
7 c-25 5 -33 2 -47 -20 -13 -20 -23 -25 -41 -20 -13 3 -23 1 -23 -5 0 -5 8
-10 18 -10 10 0 27 -7 39 -15 21 -15 22 -14 20 12 -2 22 2 28 18 28 15 0 20
-6 19 -25 -1 -14 4 -28 11 -33 18 -10 21 -363 4 -383 -8 -10 -8 -14 0 -14 7 0
11 -25 11 -72 -1 -76 -14 -108 -43 -108 -10 0 -14 -5 -11 -15 7 -17 34 -21 34
-5 0 6 5 10 11 10 6 0 9 -12 7 -27 -3 -26 -6 -28 -58 -30 -30 -1 -60 3 -66 8
-9 7 -19 6 -33 -2 -16 -11 -25 -10 -47 1 -21 12 -28 12 -31 3 -6 -17 -55 -17
-71 -1 -10 10 -15 10 -22 -2 -5 -8 -12 -11 -16 -7 -12 12 -15 116 -4 137 7 12
7 21 0 25 -16 10 -12 53 6 63 10 6 14 14 9 22 -6 9 -9 9 -16 -1 -5 -8 -9 31
-9 97 0 61 2 113 5 116 3 3 23 0 45 -5 30 -8 43 -8 52 1 9 9 5 13 -19 18 -20
4 -33 14 -37 27 -5 20 -6 20 -26 2 -20 -18 -20 -18 -20 15 0 24 4 31 15 26 9
-3 15 0 15 9 0 8 -6 15 -14 15 -12 0 -15 78 -16 520 l-1 520 181 0 180 0 0
-75z m1922 -420 l178 -490 -2 -310 -3 -310 -59 0 -59 0 -288 790 c-159 435
-289 796 -289 803 0 10 38 12 171 10 l172 -3 179 -490z m1715 478 c-4 -15
-552 -1523 -572 -1575 -6 -14 -19 -18 -66 -18 l-59 0 0 44 c0 38 3 43 19 39
15 -4 19 1 19 21 0 19 -6 26 -19 26 -18 0 -19 12 -19 251 l0 251 178 489 177
489 174 0 c160 0 173 -1 168 -17z m3300 -455 c2 -299 -1 -468 -7 -468 -6 0
-10 12 -10 28 0 16 -8 32 -20 40 -18 11 -22 9 -38 -18 -14 -25 -21 -29 -44
-24 -17 3 -28 1 -28 -5 0 -6 8 -11 18 -11 10 0 27 -7 38 -15 28 -21 31 -19 26
16 -4 26 -2 30 14 27 11 -2 20 -13 22 -28 2 -13 10 -33 18 -44 19 -27 18 -66
-2 -94 -9 -13 -13 -26 -10 -29 3 -4 6 -1 6 5 0 7 5 12 10 12 15 0 13 -243 -2
-259 -10 -11 -10 -14 0 -18 8 -3 12 -28 12 -74 0 -56 -4 -73 -22 -94 -11 -13
-25 -22 -30 -19 -4 3 -8 -2 -8 -10 0 -18 25 -22 36 -5 10 17 27 -6 20 -29 -6
-17 -15 -20 -64 -20 -31 0 -60 6 -64 12 -5 8 -13 8 -28 -1 -26 -17 -45 -16
-61 3 -11 14 -13 14 -21 0 -10 -18 -63 -22 -73 -6 -5 8 -11 7 -21 -1 -8 -6
-17 -9 -21 -5 -13 12 -14 118 -2 133 9 10 9 17 1 25 -17 17 -15 58 3 64 8 4
15 12 15 20 0 17 -16 18 -24 2 -2 -7 -4 39 -3 102 2 97 4 114 17 111 8 -2 32
-6 54 -9 30 -4 38 -2 34 9 -2 8 -17 15 -31 17 -19 2 -27 9 -27 23 0 23 -8 24
-32 2 -17 -15 -18 -14 -18 15 0 34 8 40 28 20 13 -13 15 -8 6 16 -3 9 -12 16
-19 16 -11 0 -13 101 -14 520 l-2 520 183 -2 183 -3 2 -467z m2097 -321 c153
-435 278 -796 277 -802 -1 -6 -76 -10 -203 -10 l-203 0 -45 155 c-25 85 -49
161 -53 168 -6 9 -62 12 -223 12 -174 0 -216 3 -220 14 -3 8 12 74 34 147 l39
134 136 3 c76 1 137 6 137 10 0 4 -23 81 -50 171 -27 91 -64 221 -82 289 l-32
125 -37 -145 c-71 -277 -261 -910 -281 -935 -5 -7 -7 -16 -4 -21 3 -6 -2 -36
-12 -68 l-18 -59 -162 -2 -162 -2 1 106 c0 95 2 106 20 110 10 3 16 9 13 14
-3 5 -10 7 -15 4 -29 -18 -11 65 40 190 4 11 24 67 43 125 26 78 40 105 52
104 9 -1 16 4 16 12 0 8 -4 14 -10 14 -5 0 -10 8 -10 18 0 15 2 15 11 2 8 -12
9 -11 5 5 -6 21 31 135 179 560 43 121 87 248 98 283 l21 62 211 0 210 0 279
-793z m-2604 693 c0 -5 -9 -8 -20 -7 -20 1 -25 8 -14 20 8 7 34 -3 34 -13z
m-3649 -635 l89 -240 0 -317 0 -318 -59 0 c-47 0 -60 4 -66 18 -4 9 -54 148
-112 307 -58 160 -108 293 -112 297 -4 4 -58 -134 -121 -308 l-115 -315 -60 3
-60 3 -3 43 c-3 40 -2 43 17 37 18 -5 21 -2 21 19 0 19 -5 26 -20 26 -19 0
-20 7 -20 241 l0 241 92 254 93 254 174 -2 174 -3 88 -240z m-2784 -192 c-3
-10 -5 -4 -5 12 0 17 2 24 5 18 2 -7 2 -21 0 -30z m5058 -323 c81 -184 150
-341 152 -347 4 -10 -39 -13 -196 -13 -194 0 -201 1 -212 21 -6 12 -32 70 -59
129 l-47 108 22 53 c23 54 38 69 50 50 8 -14 35 -14 35 -1 0 6 -9 10 -19 10
-11 0 -22 4 -26 9 -8 14 136 334 146 324 4 -4 74 -159 154 -343z m-4897 -66
c9 -15 13 -15 54 0 57 22 124 18 122 -6 -2 -23 5 -23 21 -1 17 22 236 33 261
12 11 -9 18 -9 22 -2 4 6 33 10 67 10 57 -2 60 -3 60 -27 0 -17 5 -25 17 -24
18 2 32 -43 16 -52 -5 -4 2 -18 15 -33 22 -22 25 -34 23 -85 -2 -66 -18 -86
-73 -86 -31 0 -32 1 -26 33 3 17 10 37 15 44 5 7 7 16 4 22 -3 5 1 12 10 15
11 4 14 12 9 24 -5 9 -9 28 -10 42 -1 17 -8 25 -21 25 -15 0 -18 -6 -16 -28 2
-18 -3 -29 -14 -34 -13 -5 -15 -15 -9 -59 6 -49 5 -54 -13 -54 -11 0 -22 5
-24 12 -7 20 -74 -4 -70 -25 2 -14 -5 -17 -38 -17 -44 0 -61 19 -41 44 10 11
8 16 -9 21 -32 10 -80 -4 -73 -21 9 -25 -17 -44 -63 -44 -23 0 -46 5 -49 10
-5 8 -11 8 -20 0 -8 -7 -54 -10 -121 -8 l-109 3 -2 100 c-1 55 2 102 7 105 6
4 5 19 -2 37 -9 25 -9 35 1 47 18 21 67 21 79 0z m6932 1 c0 -8 4 -15 9 -15 5
0 25 7 44 15 20 8 57 15 83 15 41 0 46 -2 41 -20 -6 -24 8 -27 21 -4 7 13 32
18 126 22 102 4 119 3 136 -13 18 -16 20 -16 20 -2 0 12 9 17 30 17 17 0 30
-5 30 -10 0 -6 7 -6 19 1 27 17 51 4 51 -27 0 -19 4 -25 15 -20 10 3 17 -3 21
-21 5 -17 3 -28 -4 -31 -7 -2 1 -16 18 -34 31 -30 38 -52 20 -63 -6 -4 -8 -21
-4 -41 8 -42 -13 -63 -63 -64 -33 0 -51 14 -33 25 5 3 10 17 10 31 0 13 4 24
10 24 5 0 7 7 4 15 -4 8 -1 15 5 15 13 0 4 79 -10 94 -13 15 -38 -12 -31 -36
3 -13 -1 -24 -12 -30 -18 -10 -22 -48 -6 -64 6 -6 8 -18 4 -27 -7 -19 -40 -23
-46 -6 -3 8 -15 9 -36 4 -23 -5 -32 -12 -32 -26 0 -17 -6 -20 -37 -17 -35 3
-38 6 -38 33 0 21 -5 31 -18 33 -32 6 -67 -7 -67 -26 0 -29 -21 -42 -65 -42
-23 0 -46 5 -53 12 -9 9 -12 9 -12 0 0 -10 -28 -12 -112 -10 l-113 3 -3 103
c-2 67 1 102 8 102 7 0 8 6 0 19 -11 22 -13 64 -3 74 3 4 21 7 40 7 23 0 33
-5 33 -15z m-6250 -70 c0 -8 -4 -15 -10 -15 -5 0 -10 7 -10 15 0 8 5 15 10 15
6 0 10 -7 10 -15z m6940 6 c0 -12 -20 -25 -27 -18 -7 7 6 27 18 27 5 0 9 -4 9
-9z m-7270 -176 c0 -10 -24 -55 -29 -55 -3 0 -13 4 -21 10 -12 7 -12 12 4 29
17 19 46 29 46 16z m6930 1 c0 -14 -21 -56 -27 -56 -5 0 -15 4 -23 10 -12 7
-12 12 4 29 17 18 46 29 46 17z m-6769 -41 c0 -5 -9 -11 -21 -13 -20 -3 -27 8
-13 22 10 9 34 3 34 -9z m6937 -2 c2 -8 -6 -13 -22 -13 -25 0 -33 10 -19 24
10 10 36 3 41 -11z"/>
<path d="M3191 4251 c-11 -7 -7 -13 17 -25 40 -21 42 -20 42 9 0 19 -5 25 -22
25 -13 0 -29 -4 -37 -9z"/>
<path d="M3322 3710 c0 -14 2 -19 5 -12 2 6 2 18 0 25 -3 6 -5 1 -5 -13z"/>
<path d="M3335 3590 c-3 -5 -1 -10 4 -10 6 0 11 5 11 10 0 6 -2 10 -4 10 -3 0
-8 -4 -11 -10z"/>
<path d="M3184 3435 c-5 -12 -1 -23 11 -31 37 -27 36 -9 -2 45 -1 2 -6 -4 -9
-14z"/>
<path d="M3051 3431 c-16 -10 -6 -31 15 -31 16 0 18 9 6 27 -4 7 -13 9 -21 4z"/>
<path d="M3125 3401 c5 -25 3 -30 -17 -33 -12 -2 -24 -11 -26 -20 -5 -26 43
-23 69 3 20 20 20 23 5 31 -9 5 -16 18 -16 28 0 11 -5 20 -11 20 -7 0 -8 -11
-4 -29z"/>
<path d="M3320 3400 c0 -5 4 -10 9 -10 6 0 13 5 16 10 3 6 -1 10 -9 10 -9 0
-16 -4 -16 -10z"/>
<path d="M3146 3221 c-3 -5 0 -14 8 -20 11 -9 15 -8 20 5 3 8 6 18 6 20 0 8
-29 4 -34 -5z"/>
<path d="M3035 3197 c-12 -10 -14 -16 -7 -21 14 -8 55 17 45 27 -9 10 -17 9
-38 -6z"/>
<path d="M3271 3156 c-10 -12 -8 -13 8 -9 12 3 21 9 21 14 0 14 -16 11 -29 -5z"/>
<path d="M6018 4275 c22 -39 29 -47 35 -38 4 6 -5 21 -20 34 -22 20 -24 21
-15 4z"/>
<path d="M5901 4251 c-14 -9 -9 -15 33 -30 24 -10 26 -8 26 14 0 19 -5 25 -22
25 -13 0 -29 -4 -37 -9z"/>
<path d="M6032 3710 c0 -14 2 -19 5 -12 2 6 2 18 0 25 -3 6 -5 1 -5 -13z"/>
<path d="M5894 3436 c-6 -16 19 -45 39 -46 6 0 -9 30 -30 59 -1 2 -5 -4 -9
-13z"/>
<path d="M5761 3431 c-16 -10 -6 -31 15 -31 16 0 18 9 6 27 -4 7 -13 9 -21 4z"/>
<path d="M5836 3427 c-5 -10 -4 -23 3 -31 13 -15 5 -26 -20 -26 -14 0 -29 -18
-29 -36 0 -12 59 -2 64 11 3 8 13 15 23 15 16 0 15 3 -4 18 -12 9 -23 28 -25
42 -4 21 -6 22 -12 7z"/>
<path d="M6030 3400 c0 -5 7 -10 15 -10 8 0 15 5 15 10 0 6 -7 10 -15 10 -8 0
-15 -4 -15 -10z"/>
<path d="M5950 3319 c0 -5 5 -7 10 -4 6 3 10 8 10 11 0 2 -4 4 -10 4 -5 0 -10
-5 -10 -11z"/>
<path d="M5856 3221 c-3 -5 0 -14 8 -20 11 -9 15 -8 20 5 3 8 6 18 6 20 0 8
-29 4 -34 -5z"/>
<path d="M5751 3199 c-17 -7 -21 -13 -14 -20 11 -11 53 8 53 23 0 10 -9 9 -39
-3z"/>
<path d="M5981 3156 c-10 -12 -8 -13 9 -9 25 7 37 23 17 23 -8 0 -20 -6 -26
-14z"/>
<path d="M6418 4318 c-34 -12 -36 -24 -5 -32 44 -12 57 -7 57 19 0 27 -9 29
-52 13z"/>
<path d="M6370 4170 c0 -5 5 -10 10 -10 6 0 10 5 10 10 0 6 -4 10 -10 10 -5 0
-10 -4 -10 -10z"/>
<path d="M6922 4313 c-10 -4 -10 -8 -1 -19 16 -19 41 -18 37 3 -3 18 -16 24
-36 16z"/>
<path d="M7075 4260 c-3 -5 -12 -7 -20 -3 -19 7 -19 -11 -1 -26 10 -9 15 -8
20 4 3 8 13 15 21 15 9 0 13 5 10 10 -8 13 -22 13 -30 0z"/>
<path d="M6980 4110 c-9 -6 -10 -10 -3 -10 6 0 15 5 18 10 8 12 4 12 -15 0z"/>
<path d="M6938 4093 c7 -3 16 -2 19 1 4 3 -2 6 -13 5 -11 0 -14 -3 -6 -6z"/>
<path d="M6823 4043 c-10 -10 -14 -15 -9 -10 6 4 18 7 28 7 10 0 18 5 18 10 0
15 -16 12 -37 -7z"/>
<path d="M6886 4021 c-4 -7 -5 -15 -2 -18 9 -9 19 4 14 18 -4 11 -6 11 -12 0z"/>
<path d="M6894 3939 c-4 -7 1 -18 11 -26 36 -26 49 -9 16 21 -14 13 -21 14
-27 5z"/>
<path d="M6755 3837 c-4 -9 -2 -24 4 -31 10 -12 6 -15 -18 -21 -48 -10 -51
-45 -4 -45 13 0 23 -5 23 -11 0 -5 5 -7 10 -4 6 4 8 10 5 15 -10 16 7 40 29
41 l21 0 -22 11 c-12 6 -26 22 -31 37 -8 22 -11 24 -17 8z"/>
<path d="M6890 3740 c0 -5 5 -10 10 -10 6 0 10 5 10 10 0 6 -4 10 -10 10 -5 0
-10 -4 -10 -10z"/>
<path d="M6658 3673 c5 -10 7 -25 5 -33 -4 -13 -3 -13 6 -1 9 14 -2 51 -15 51
-2 0 -1 -8 4 -17z"/>
<path d="M6865 3670 c3 -5 11 -10 16 -10 6 0 7 5 4 10 -3 6 -11 10 -16 10 -6
0 -7 -4 -4 -10z"/>
<path d="M6787 3641 c-18 -6 -18 -8 -2 -21 14 -12 18 -12 26 1 18 28 11 34
-24 20z"/>
<path d="M6788 3576 c-20 -15 -14 -26 14 -26 19 0 22 8 10 27 -5 8 -11 8 -24
-1z"/>
<path d="M6661 3553 c0 -12 -4 -30 -7 -40 -5 -17 -5 -17 6 0 6 10 9 28 7 40
-4 22 -4 22 -6 0z"/>
<path d="M6756 3465 c-3 -8 -12 -12 -20 -9 -24 9 -38 -4 -26 -27 7 -11 21 -19
37 -19 21 0 24 -3 15 -12 -14 -14 -16 -48 -3 -48 5 0 11 11 15 23 3 13 16 29
28 35 23 11 23 11 2 11 -22 1 -39 25 -29 41 3 5 1 11 -4 14 -5 3 -11 -1 -15
-9z"/>
<path d="M6580 3410 c0 -5 5 -10 10 -10 6 0 10 5 10 10 0 6 -4 10 -10 10 -5 0
-10 -4 -10 -10z"/>
<path d="M6411 2909 c-28 -11 -27 -12 22 -32 l37 -16 0 30 c0 31 -14 36 -59
18z"/>
<path d="M7393 4309 c14 -8 22 -8 30 0 8 8 3 11 -18 11 -26 -1 -28 -2 -12 -11z"/>
<path d="M7390 4176 c0 -8 5 -18 10 -21 6 -3 10 1 10 9 0 8 -4 18 -10 21 -5 3
-10 -1 -10 -9z"/>
<path d="M7455 4119 c-10 -14 -1 -21 19 -13 9 3 13 10 10 15 -7 12 -21 11 -29
-2z"/>
<path d="M7431 4075 c-1 -12 3 -25 9 -31 5 -5 5 -15 1 -23 -7 -10 -13 -10 -29
-2 -33 18 -49 13 -21 -7 15 -9 37 -28 48 -42 21 -23 21 -23 9 -2 -11 20 -11
25 5 36 17 13 24 46 9 46 -5 0 -14 10 -20 23 -10 21 -11 21 -11 2z"/>
<path d="M7500 4010 c0 -5 5 -10 10 -10 6 0 10 5 10 10 0 6 -4 10 -10 10 -5 0
-10 -4 -10 -10z"/>
<path d="M7446 3895 c4 -8 11 -15 16 -15 6 0 5 6 -2 15 -7 8 -14 15 -16 15 -2
0 -1 -7 2 -15z"/>
<path d="M7550 3570 c19 -13 30 -13 30 0 0 6 -10 10 -22 10 -19 0 -20 -2 -8
-10z"/>
<path d="M7522 3500 c6 -19 38 -26 38 -9 0 7 -3 9 -7 6 -3 -4 -13 -1 -21 6
-13 10 -14 9 -10 -3z"/>
<path d="M7430 3371 c0 -12 31 -43 37 -37 7 7 -16 46 -27 46 -6 0 -10 -4 -10
-9z"/>
<path d="M7488 3283 c7 -3 16 -2 19 1 4 3 -2 6 -13 5 -11 0 -14 -3 -6 -6z"/>
<path d="M7595 3280 c3 -5 8 -10 11 -10 2 0 4 5 4 10 0 6 -5 10 -11 10 -5 0
-7 -4 -4 -10z"/>
<path d="M7426 3213 c-10 -25 -7 -33 13 -33 28 0 33 14 11 32 -16 15 -19 15
-24 1z"/>
<path d="M7590 3170 c0 -5 11 -10 25 -10 14 0 25 5 25 10 0 6 -11 10 -25 10
-14 0 -25 -4 -25 -10z"/>
<path d="M7620 2980 c0 -5 -11 -10 -25 -10 -16 0 -25 -6 -25 -15 0 -19 15 -19
45 1 25 17 33 34 15 34 -5 0 -10 -4 -10 -10z"/>
<path d="M7480 2892 c0 -2 7 -10 15 -18 11 -12 19 -12 35 -4 27 15 26 17 -15
22 -19 2 -35 2 -35 0z"/>
<path d="M7620 2864 c0 -8 5 -12 10 -9 6 3 10 10 10 16 0 5 -4 9 -10 9 -5 0
-10 -7 -10 -16z"/>
<path d="M7410 2830 c0 -5 5 -10 10 -10 6 0 10 5 10 10 0 6 -4 10 -10 10 -5 0
-10 -4 -10 -10z"/>
<path d="M8251 4034 c0 -11 3 -14 6 -6 3 7 2 16 -1 19 -3 4 -6 -2 -5 -13z"/>
<path d="M7870 3611 c0 -10 30 -24 37 -17 3 3 2 9 -2 15 -8 13 -35 15 -35 2z"/>
<path d="M7777 3604 c-11 -11 -8 -24 6 -24 7 0 18 -9 25 -20 7 -11 20 -20 29
-20 15 0 15 1 -1 13 -10 7 -16 22 -14 33 2 13 -3 20 -17 22 -12 2 -24 0 -28
-4z"/>
<path d="M8002 3579 c2 -7 10 -15 17 -17 8 -3 12 1 9 9 -2 7 -10 15 -17 17 -8
3 -12 -1 -9 -9z"/>
<path d="M11680 4316 c-34 -12 -34 -13 -13 -24 38 -21 63 -15 63 13 0 28 -1
28 -50 11z"/>
<path d="M11635 4170 c3 -5 8 -10 11 -10 2 0 4 5 4 10 0 6 -5 10 -11 10 -5 0
-7 -4 -4 -10z"/>
<path d="M12187 4312 c-14 -3 -16 -7 -6 -18 15 -18 39 -18 39 0 0 18 -10 24
-33 18z"/>
<path d="M12340 4259 c0 -6 -7 -9 -15 -6 -20 8 -28 -8 -10 -23 10 -8 15 -9 15
-1 0 6 12 14 26 17 19 5 22 9 12 15 -18 12 -28 11 -28 -2z"/>
<path d="M12240 4110 c-9 -6 -10 -10 -3 -10 6 0 15 5 18 10 8 12 4 12 -15 0z"/>
<path d="M12079 4040 l-24 -19 33 12 c17 6 32 15 32 19 0 14 -17 9 -41 -12z"/>
<path d="M12157 3938 c-4 -14 21 -37 41 -38 9 0 8 7 -5 25 -20 27 -29 31 -36
13z"/>
<path d="M12017 3836 c-3 -7 0 -19 6 -25 14 -14 -6 -31 -35 -31 -11 0 -18 -8
-18 -20 0 -13 7 -20 19 -20 11 0 26 -3 35 -6 12 -4 16 0 16 15 0 13 9 25 22
30 l23 8 -23 7 c-12 4 -22 15 -22 26 0 23 -16 35 -23 16z"/>
<path d="M12150 3740 c0 -5 5 -10 10 -10 6 0 10 5 10 10 0 6 -4 10 -10 10 -5
0 -10 -4 -10 -10z"/>
<path d="M11915 3680 c3 -5 8 -10 11 -10 2 0 4 5 4 10 0 6 -5 10 -11 10 -5 0
-7 -4 -4 -10z"/>
<path d="M12125 3670 c3 -5 11 -10 16 -10 6 0 7 5 4 10 -3 6 -11 10 -16 10 -6
0 -7 -4 -4 -10z"/>
<path d="M11926 3643 c-6 -14 -5 -15 5 -6 7 7 10 15 7 18 -3 3 -9 -2 -12 -12z"/>
<path d="M12052 3643 c-10 -4 -10 -8 -1 -19 13 -16 29 -10 29 12 0 15 -6 16
-28 7z"/>
<path d="M12051 3576 c-11 -13 -10 -17 3 -22 22 -8 30 1 19 21 -9 15 -11 15
-22 1z"/>
<path d="M11915 3520 c-3 -5 -1 -10 4 -10 6 0 11 5 11 10 0 6 -2 10 -4 10 -3
0 -8 -4 -11 -10z"/>
<path d="M12016 3461 c-3 -5 -15 -7 -27 -4 -17 5 -20 2 -17 -18 2 -18 10 -25
31 -27 29 -4 34 -11 16 -29 -13 -13 -3 -36 12 -28 5 4 9 14 9 24 0 10 10 23
23 29 l22 11 -22 0 c-18 1 -23 7 -23 26 0 25 -14 34 -24 16z"/>
<path d="M11840 3410 c0 -5 5 -10 10 -10 6 0 10 5 10 10 0 6 -4 10 -10 10 -5
0 -10 -4 -10 -10z"/>
<path d="M11670 2908 l-25 -10 30 -14 c44 -19 55 -17 55 11 0 28 -17 31 -60
13z"/>
<path d="M427 3573 c-4 -3 -7 -11 -7 -17 0 -6 5 -5 12 2 6 6 9 14 7 17 -3 3
-9 2 -12 -2z"/>
<path d="M330 3361 c-8 -21 -9 -35 -1 -48 9 -15 10 -13 11 15 0 19 6 35 15 38
8 4 12 10 9 15 -10 16 -21 9 -34 -20z"/>
<path d="M513 3365 c13 -27 27 -33 27 -12 0 14 -19 37 -31 37 -4 0 -2 -11 4
-25z"/>
<path d="M340 3149 c0 -5 5 -7 10 -4 6 3 10 8 10 11 0 2 -4 4 -10 4 -5 0 -10
-5 -10 -11z"/>
<path d="M260 3059 c0 -5 5 -7 10 -4 6 3 10 8 10 11 0 2 -4 4 -10 4 -5 0 -10
-5 -10 -11z"/>
<path d="M285 3040 c-3 -5 -2 -10 4 -10 5 0 13 5 16 10 3 6 2 10 -4 10 -5 0
-13 -4 -16 -10z"/>
<path d="M540 2996 c0 -8 5 -18 10 -21 6 -3 10 3 10 14 0 12 -4 21 -10 21 -5
0 -10 -6 -10 -14z"/>
<path d="M407 2937 c-4 -10 -4 -29 -1 -41 4 -18 1 -25 -17 -29 -13 -4 -21 -9
-17 -12 3 -3 17 0 32 6 24 11 28 10 42 -9 23 -33 29 -27 30 31 1 28 0 40 -3
25 -7 -47 -47 -30 -55 22 -3 22 -4 22 -11 7z"/>
<path d="M345 2901 c-7 -12 12 -24 25 -16 11 7 4 25 -10 25 -5 0 -11 -4 -15
-9z"/>
<path d="M1891 4251 c-11 -7 -7 -13 17 -25 40 -21 42 -20 42 9 0 19 -5 25 -22
25 -13 0 -29 -4 -37 -9z"/>
<path d="M2022 3710 c0 -14 2 -19 5 -12 2 6 2 18 0 25 -3 6 -5 1 -5 -13z"/>
<path d="M2035 3590 c-3 -5 -1 -10 4 -10 6 0 11 5 11 10 0 6 -2 10 -4 10 -3 0
-8 -4 -11 -10z"/>
<path d="M1884 3435 c-5 -12 -1 -22 11 -31 25 -19 28 -12 11 21 -13 26 -16 27
-22 10z"/>
<path d="M1742 3418 c3 -7 13 -15 22 -16 12 -3 17 1 14 10 -3 7 -13 15 -22 16
-12 3 -17 -1 -14 -10z"/>
<path d="M1825 3401 c5 -25 3 -30 -17 -33 -15 -2 -23 -10 -23 -23 0 -26 38
-22 67 7 19 19 19 22 4 30 -9 5 -16 18 -16 28 0 11 -5 20 -11 20 -7 0 -8 -11
-4 -29z"/>
<path d="M2025 3400 c-3 -5 -1 -10 4 -10 6 0 11 5 11 10 0 6 -2 10 -4 10 -3 0
-8 -4 -11 -10z"/>
<path d="M2030 3309 c0 -5 5 -7 10 -4 6 3 10 8 10 11 0 2 -4 4 -10 4 -5 0 -10
-5 -10 -11z"/>
<path d="M1846 3221 c-3 -5 0 -14 8 -20 11 -9 15 -8 20 5 3 8 6 18 6 20 0 8
-29 4 -34 -5z"/>
<path d="M1741 3199 c-18 -7 -21 -13 -14 -20 8 -8 17 -7 33 4 26 18 14 28 -19
16z"/>
<path d="M1971 3156 c-10 -12 -8 -13 8 -9 12 3 21 9 21 14 0 14 -16 11 -29 -5z"/>
<path d="M3658 4368 c-31 -11 -36 -23 -12 -32 34 -13 52 -7 52 19 0 28 -1 28
-40 13z"/>
<path d="M3790 3820 c0 -5 5 -10 10 -10 6 0 10 5 10 10 0 6 -4 10 -10 10 -5 0
-10 -4 -10 -10z"/>
<path d="M3967 3603 c-13 -12 -7 -23 13 -23 13 0 18 5 14 15 -7 16 -17 19 -27
8z"/>
<path d="M3900 3465 c0 -9 11 -20 24 -27 21 -9 24 -16 19 -39 -3 -18 -1 -29 6
-29 6 0 11 11 11 24 0 13 7 26 15 30 12 4 10 10 -9 31 -26 28 -66 34 -66 10z"/>
<path d="M4055 3300 c-3 -5 -1 -10 4 -10 6 0 11 5 11 10 0 6 -2 10 -4 10 -3 0
-8 -4 -11 -10z"/>
<path d="M4003 3163 c9 -9 20 -13 24 -9 4 4 1 11 -7 16 -25 16 -35 11 -17 -7z"/>
<path d="M4098 3056 c-19 -14 -23 -32 -10 -40 5 -3 16 8 26 25 18 31 12 37
-16 15z"/>
<path d="M4070 2950 c0 -5 5 -10 10 -10 6 0 10 5 10 10 0 6 -4 10 -10 10 -5 0
-10 -4 -10 -10z"/>
<path d="M5422 4348 c5 -15 28 -18 29 -3 0 6 -7 12 -17 13 -10 3 -15 -1 -12
-10z"/>
<path d="M5560 4311 c0 -6 -7 -11 -15 -11 -16 0 -21 -16 -7 -23 12 -7 45 30
33 38 -6 3 -11 1 -11 -4z"/>
<path d="M5335 4080 c-17 -19 -17 -19 9 -7 14 7 26 15 26 20 0 13 -17 7 -35
-13z"/>
<path d="M5390 4049 c0 -5 5 -7 10 -4 6 3 10 8 10 11 0 2 -4 4 -10 4 -5 0 -10
-5 -10 -11z"/>
<path d="M5401 3976 c-10 -11 -7 -17 10 -30 29 -20 33 -16 16 18 -12 22 -16
24 -26 12z"/>
<path d="M5283 3851 c5 -25 2 -30 -18 -35 -34 -9 -33 -42 0 -48 14 -3 25 -1
25 3 0 5 9 18 20 29 17 17 18 21 5 26 -8 4 -15 17 -15 30 0 13 -5 24 -11 24
-7 0 -9 -11 -6 -29z"/>
<path d="M5375 3700 c3 -5 8 -10 11 -10 2 0 4 5 4 10 0 6 -5 10 -11 10 -5 0
-7 -4 -4 -10z"/>
<path d="M5302 3658 c6 -18 25 -20 31 -3 5 10 0 15 -14 15 -12 0 -19 -5 -17
-12z"/>
<path d="M5130 3430 c0 -5 5 -10 10 -10 6 0 10 5 10 10 0 6 -4 10 -10 10 -5 0
-10 -4 -10 -10z"/>
<path d="M8938 4275 c22 -39 29 -47 35 -38 4 6 -5 21 -20 34 -22 20 -24 21
-15 4z"/>
<path d="M8821 4251 c-14 -9 -9 -15 33 -30 24 -10 26 -8 26 14 0 19 -5 25 -22
25 -13 0 -29 -4 -37 -9z"/>
<path d="M8952 3710 c0 -14 2 -19 5 -12 2 6 2 18 0 25 -3 6 -5 1 -5 -13z"/>
<path d="M8971 3584 c0 -11 3 -14 6 -6 3 7 2 16 -1 19 -3 4 -6 -2 -5 -13z"/>
<path d="M8816 3434 c-4 -10 1 -22 11 -30 29 -21 35 -16 16 14 -9 15 -18 28
-19 30 -1 2 -4 -5 -8 -14z"/>
<path d="M8680 3430 c-13 -8 -13 -11 2 -26 16 -17 18 -17 24 0 9 23 -7 38 -26
26z"/>
<path d="M8755 3427 c-4 -9 -2 -23 4 -31 13 -15 5 -26 -21 -26 -17 0 -20 -4
-22 -32 -1 -6 11 -12 27 -12 17 -1 27 3 27 12 0 8 10 16 21 19 20 6 21 7 5 19
-10 6 -21 25 -25 41 -7 23 -10 25 -16 10z"/>
<path d="M8955 3400 c-3 -5 1 -10 9 -10 9 0 16 5 16 10 0 6 -4 10 -9 10 -6 0
-13 -4 -16 -10z"/>
<path d="M8870 3319 c0 -5 5 -7 10 -4 6 3 10 8 10 11 0 2 -4 4 -10 4 -5 0 -10
-5 -10 -11z"/>
<path d="M8776 3221 c-3 -5 0 -14 8 -20 11 -9 15 -8 20 5 3 8 6 18 6 20 0 8
-29 4 -34 -5z"/>
<path d="M8685 3200 c-4 -6 -10 -8 -15 -5 -5 3 -11 1 -14 -4 -11 -16 12 -22
34 -9 11 7 20 16 20 20 0 12 -18 10 -25 -2z"/>
<path d="M8901 3156 c-10 -12 -8 -13 9 -9 25 7 37 23 17 23 -8 0 -20 -6 -26
-14z"/>
<path d="M8845 2919 c-4 -6 -5 -12 -2 -15 2 -3 7 2 10 11 7 17 1 20 -8 4z"/>
<path d="M10151 3564 c0 -11 3 -14 6 -6 3 7 2 16 -1 19 -3 4 -6 -2 -5 -13z"/>
<path d="M10057 3363 c-9 -18 -11 -36 -6 -48 6 -16 8 -14 8 13 1 19 7 35 16
38 17 7 21 24 5 24 -5 0 -16 -12 -23 -27z"/>
<path d="M10230 3384 c0 -5 7 -18 15 -28 12 -16 15 -17 15 -4 0 8 -7 21 -15
28 -8 7 -15 9 -15 4z"/>
<path d="M10060 3150 c0 -5 4 -10 9 -10 6 0 13 5 16 10 3 6 -1 10 -9 10 -9 0
-16 -4 -16 -10z"/>
<path d="M9980 3060 c0 -5 4 -10 9 -10 6 0 13 5 16 10 3 6 -1 10 -9 10 -9 0
-16 -4 -16 -10z"/>
<path d="M10260 3003 c1 -18 18 -35 24 -24 4 6 4 16 1 21 -7 12 -25 13 -25 3z"/>
<path d="M10130 2911 c0 -27 -5 -41 -16 -45 -9 -4 -14 -9 -11 -12 3 -3 15 1
27 8 19 12 24 10 46 -17 21 -25 25 -27 23 -10 -1 11 0 23 1 28 6 18 4 67 -2
67 -5 0 -8 -14 -8 -30 l0 -31 -25 18 c-17 12 -24 25 -22 41 3 12 0 22 -4 22
-5 0 -9 -18 -9 -39z"/>
<path d="M10072 2899 c2 -6 8 -10 13 -10 5 0 11 4 13 10 2 6 -4 11 -13 11 -9
0 -15 -5 -13 -11z"/>
<path d="M4508 3884 c-8 -7 13 -44 24 -44 12 0 10 14 -5 34 -7 9 -16 14 -19
10z"/>
<path d="M4461 3760 c-13 -7 -13 -11 -1 -25 12 -15 14 -15 23 0 11 21 -3 37
-22 25z"/>
<path d="M4426 3675 c-3 -8 -1 -15 4 -15 6 0 10 7 10 15 0 8 -2 15 -4 15 -2 0
-6 -7 -10 -15z"/>
<path d="M4743 3604 c-18 -18 -16 -24 7 -24 21 0 25 7 12 26 -5 9 -10 8 -19
-2z"/>
<path d="M4460 3550 c-25 -5 -25 -5 -9 -39 16 -34 16 -34 28 -12 19 35 11 57
-19 51z"/>
<path d="M4674 3468 c-8 -12 21 -38 43 -38 11 0 11 -4 1 -20 -10 -15 -10 -22
0 -32 9 -9 12 -7 12 9 0 12 10 29 22 37 18 13 19 16 6 16 -9 0 -20 9 -23 20
-7 22 -49 28 -61 8z"/>
<path d="M4830 3299 c0 -5 5 -7 10 -4 6 3 10 8 10 11 0 2 -4 4 -10 4 -5 0 -10
-5 -10 -11z"/>
<path d="M4850 3229 c0 -5 5 -7 10 -4 6 3 10 8 10 11 0 2 -4 4 -10 4 -5 0 -10
-5 -10 -11z"/>
<path d="M4774 3165 c11 -8 22 -12 25 -9 6 6 -19 24 -34 24 -5 -1 -1 -7 9 -15z"/>
<path d="M4871 3053 c-13 -12 -18 -23 -12 -31 6 -10 12 -7 25 13 22 33 16 41
-13 18z"/>
<path d="M4851 2944 c0 -11 3 -14 6 -6 3 7 2 16 -1 19 -3 4 -6 -2 -5 -13z"/>
<path d="M6907 3286 c-10 -8 -15 -20 -11 -30 5 -14 9 -12 25 8 29 37 22 49
-14 22z"/>
<path d="M6880 3191 c0 -6 5 -13 10 -16 6 -3 10 1 10 9 0 9 -4 16 -10 16 -5 0
-10 -4 -10 -9z"/>
<path d="M6885 3010 c-3 -5 -1 -10 4 -10 6 0 11 5 11 10 0 6 -2 10 -4 10 -3 0
-8 -4 -11 -10z"/>
<path d="M7047 2963 c-13 -13 -7 -21 20 -26 40 -7 49 3 18 19 -32 16 -30 16
-38 7z"/>
<path d="M6921 2906 c-9 -11 -8 -15 5 -20 20 -8 39 7 30 23 -10 15 -21 14 -35
-3z"/>
<path d="M2261 2984 c0 -11 3 -14 6 -6 3 7 2 16 -1 19 -3 4 -6 -2 -5 -13z"/>
<path d="M2178 2962 c-22 -4 -23 -18 -3 -26 9 -3 18 1 22 10 7 18 3 21 -19 16z"/>
<path d="M2665 2950 c3 -5 10 -10 16 -10 5 0 9 5 9 10 0 6 -7 10 -16 10 -8 0
-12 -4 -9 -10z"/>
<path d="M2610 2940 c0 -5 5 -10 10 -10 6 0 10 5 10 10 0 6 -4 10 -10 10 -5 0
-10 -4 -10 -10z"/>
<path d="M2297 2923 c-4 -3 -7 -11 -7 -17 0 -6 5 -5 12 2 6 6 9 14 7 17 -3 3
-9 2 -12 -2z"/>
<path d="M2401 2904 c0 -11 3 -14 6 -6 3 7 2 16 -1 19 -3 4 -6 -2 -5 -13z"/>
<path d="M2458 2910 c-14 -34 -18 -70 -8 -70 15 0 22 23 18 57 -3 18 -6 23
-10 13z"/>
<path d="M9191 2984 c0 -11 3 -14 6 -6 3 7 2 16 -1 19 -3 4 -6 -2 -5 -13z"/>
<path d="M9120 2970 c0 -5 -7 -10 -15 -10 -22 0 -18 -17 5 -23 16 -4 20 0 20
19 0 13 -2 24 -5 24 -3 0 -5 -4 -5 -10z"/>
<path d="M9476 2965 c4 -8 8 -15 10 -15 2 0 4 7 4 15 0 8 -4 15 -10 15 -5 0
-7 -7 -4 -15z"/>
<path d="M9600 2950 c0 -5 4 -10 9 -10 6 0 13 5 16 10 3 6 -1 10 -9 10 -9 0
-16 -4 -16 -10z"/>
<path d="M9546 2933 c-6 -14 -5 -15 5 -6 7 7 10 15 7 18 -3 3 -9 -2 -12 -12z"/>
<path d="M9393 2919 c-6 -13 -14 -40 -17 -59 l-6 -35 20 21 c16 16 21 31 18
59 -3 37 -3 38 -15 14z"/>
<path d="M9470 2930 c0 -5 5 -10 10 -10 6 0 10 5 10 10 0 6 -4 10 -10 10 -5 0
-10 -4 -10 -10z"/>
<path d="M9227 2923 c-4 -3 -7 -11 -7 -17 0 -6 5 -5 12 2 6 6 9 14 7 17 -3 3
-9 2 -12 -2z"/>
<path d="M9332 2900 c0 -14 2 -19 5 -12 2 6 2 18 0 25 -3 6 -5 1 -5 -13z"/>
</g>
</svg>
